<svg xmlns="http://www.w3.org/2000/svg" viewBox="0 0 1267.2 1992.5"><title>gladiator</title><g id="Layer_2" data-name="Layer 2"><g id="Layer_1-2" data-name="Layer 1"><path d="M828.1.8c-8,1.4-22.7,6.5-29.9,10.6-16.8,9.3-32.4,30.6-36.9,50.3-2,8.6-2.3,29-.9,48.7l.9,12.2-3.7,4.1c-3.6,4-3.7,4.3-3.1,9.8,1.2,9.7,4.2,23.4,6.5,29.5s7.1,12.4,10.7,13.8c2,.7,2.3,1.5,2.3,6.1a52.1,52.1,0,0,0,1.6,11.3c1.7,7,3.1,43.1,2,54.5l-.8,7.5-7.6,4.4c-4.2,2.4-11.4,6.8-15.9,9.7-6.9,4.6-8.8,5.4-12.8,5.4s-6.9,1.1-14,4.7-9.5,5.2-11.5,9.1a30.7,30.7,0,0,1-7.6,8.3c-12,8.8-24,21.9-34,36.9-3.6,5.4-5.5,7.1-10.6,9.7-9.5,5-19.5,12.9-25.7,20.5s-15.8,24.3-19.3,33.2c-4.5,11.4-4.3,27.3.7,57.1a166.1,166.1,0,0,1,2.5,25.6c0,9.4-.4,11.8-3.5,21.5-6.3,19.3-13,48.3-17.4,74.9-3.6,21.9-10.2,40.5-17.2,49s-12.3,22-17.8,47c-3.6,16.6-6.3,32.2-8.6,50s-4.1,25.6-6.3,27.7-7,3.2-13.6,5.2-12.1,3.7-12.4,4,2.2,16.4,7.1,37.6c2.2,9.6,4.2,20,4.5,23,.3,5.1,0,6.2-3.9,12.9s-11.8,23.8-13.3,28.8c-.6,1.9-.1,2.5,3.3,4.3a20.5,20.5,0,0,0,7.6,2H533v5.6c0,4.9-1.3,8.5-11.1,30.7-6.1,13.9-12.2,28.3-13.6,32l-2.6,6.8,3.6,9c2.5,6.2,3.7,10.6,3.7,13.9,0,5.6,1.1,4.6-24,20.7l-31.5,20.3-31,20-80.2,51.8-68.2,44-6.8.6c-22.3,2-16.9,2.9-50.5-8.9l-45.3-16-23.3-8.3L144,1091l-15.8,8.4a1024.3,1024.3,0,0,0-117.4,74.5c-12.1,8.9-14.1,12.1-5.5,8.7,11-4.5,27.8-7.8,39-7.9,6.9,0,7.4-1.3,1-2.6l-4.8-.9-.3-5.5-.3-5.5,36.3-20.7,50-28.2c18.8-10.5,17.7-10.5,47.4,2.3,12.6,5.4,29.7,12.9,37.9,16.6l19.8,8.7c4.6,2,4.7,2.2,4.7,6.4a31.4,31.4,0,0,1-1.2,8.3c-1.2,3.8-2.1,4.4-26.3,18.2-29.6,16.9-81.1,47.7-112.2,67-21.5,13.4-22.4,13.9-27.7,13.9H63.2l-10.4,11.2c-8.4,9.2-21,23.6-29.6,34-1.6,2-1.3,1.8,39.4-14.7l24.1-9.7,1.4-6.1,1.4-6.1,77-46.3c66.2-39.7,77.6-46.2,81-46.3a15.6,15.6,0,0,0,6.5-1.5c1.4-.8,4.8-1.4,7.6-1.5h5.1l30.2,37.2,30.1,37.2v10.5L294.8,1275c-76.2,57.6-70.7,53.7-76.3,53.7h-5l-4.5-13.1c-3.7-11-4.6-12.7-5.1-10.5-1.7,6.2-4.7,48.6-3.5,48.6s32.2-22.6,70.9-50.3l72.4-51.8c2.1-1.5,1.7-2.1-29.2-44.4s-31.5-43.1-31.5-47.9c0-3.3.6-5.6,1.7-6.8s2-4,2.3-6.5l.5-4.6,115.4-73,115.5-72.9,10,.7c5.7.3,11.8,1.3,13.9,2.2,4.6,2,5.9,1.4,10.2-4.5,2.8-3.9,3.3-4.1,8.3-4.1s5.8-.5,8.3-3.3a51.5,51.5,0,0,0,6.2-9l3.2-5.9,7.9.2c7.6.2,8.1.1,10.2-2.6s4.4-9.6,4.4-15.4v-4.1h5.4c3.3,0,5.8-.5,6.3-1.3a91.3,91.3,0,0,0,3.3-8.6l2.5-7.5L630,925c10.4-6.5,12-7.3,16.6-7.3h5.1l1.2,9.2a379,379,0,0,0,15.2,66.3c4.6,13.8,17.1,40.1,21.9,46,7.8,9.7,9,14.5,10,41,1.1,29.2,4.1,42.5,15.9,70.4,9.3,21.8,12.1,33.1,12.1,48.1,0,20.8,2.5,40.5,7.4,57.3,7.4,25.6,27.3,118,31.7,147.2,2.6,17.4,3.5,39.1,2,47.9l-1.2,6.9-20.1,25.4c-11.1,13.9-22.8,27.9-26.2,31-7.2,6.7-14.7,10.4-23,11.2-6.5.7-9.5,2-13.6,5.5a117.8,117.8,0,0,1-11,7.2c-11.5,6.7-19.5,14.8-24.8,25.2-4.1,8.3-5.1,12.5-3.2,13.7s1.2,10-.5,18.3-1.4,7.4.4,11c2.6,5.1,5.5,7.6,12.6,10.7,4.9,2.2,6.9,2.5,10.9,2,15.5-2,91.7-32.6,99.6-39.9s18.3-12.7,27.5-14.6a341.7,341.7,0,0,0,42.9-12.2l15.7-5.5c2.9-.9,4-4.9,2.8-9.9a31.2,31.2,0,0,1-.4-11.2c1.4-11.6,1-14.6-3-22.9-3.3-6.6-4-9-4.6-17.2a126.7,126.7,0,0,0-2.9-18.1c-6.1-24.4-4.2-111.5,2.9-135.8,5-16.8,8.1-37.9,8.1-54.2,0-26.9-9.1-71.4-19-93-6.2-13.5-6.4-15.1-5.7-44.9.6-24.4,2.2-43.5,4.8-55.1s5-40.3,5.6-63.3l.6-24.7H857l4.5,6.1c2.5,3.4,4.5,6.7,4.5,7.4,0,3.9,22.7,69.1,32.3,92.5,10.5,25.9,25.8,57.4,36.1,74.3,8.2,13.4,10.4,19.2,12.6,32.7,1.1,6.9,2.5,14.2,3.1,16.3,3.3,11.9,4.1,18.7,4.9,43.2.5,15.2,1.5,29.9,2.5,35.5s1.9,12.9,2.2,17.1c.5,7,.3,8-2,12a59.6,59.6,0,0,0-4.2,8.9c-1.5,4.3-1.5,4.4,1.1,7.1s2.7,2.8,2,14.1c-2.8,46.3-7.1,79.8-13.6,104.3-3.6,13.6-4,14.6-15.7,38-17.3,34.5-37.1,70.1-53.1,95.7-6,9.6-7.2,10.9-11.9,13.2-6.7,3.3-13.9,9.8-15.4,14s-1.8,3.4-12.8,6.6c-14.6,4.2-29,9.9-33.4,13.3l-3.5,2.6-26.3-.8c-28.3-.8-58.2,0-67.6,1.9a156.1,156.1,0,0,0-16.1,4.6,120.4,120.4,0,0,1-20.3,4.6l-9.9,1.2v4.5c0,5.6-.7,6.7-4.3,7.6s-4,2.5,1.7,2.5,5.6.1,7.1,3.6a27.2,27.2,0,0,1,1.5,8.3c0,4.4-.2,4.9-3.9,6.9a17.7,17.7,0,0,1-9,2.2c-5.1,0-5.1,0-5.1,3.2s-.8,3.8-8.8,9c-4.8,3.1-10.1,6.3-11.9,7.2-4.3,2.1-13.1,2.1-15.5-.1s-1.8-1.5-1.8,1-.3,2.7-4.5,2.7H598v9l9.8-.6,9.7-.7,6.5,4.2c4.7,3.1,6.7,5,7.3,7.2s.8,2.9,8.1,2.9c5.7,0,8.3.5,12.2,2.4s4.9,2.5-3.9-5.8l-8.8-8.3.3-6.4.3-6.4,16-8.2c15.2-7.9,16.3-8.2,21.9-8l6,.2,7.8,15c6.6,12.8,7.8,15.7,7.8,20s-.4,5.4-3.7,8.7l-3.7,3.8h4.2c2.9,0,5,.7,6.4,2s3.9,1.7,9.1-2.6c2.6-2.2,3.9-2.4,12.3-2.4H733v7.1l3.7-2.6a14.5,14.5,0,0,1,8.8-2.5c4.4,0,5.2.3,6.7,2.7l1.7,2.8v-6.5h5.8a114.9,114.9,0,0,1,14,1.2l8.2,1.1v5.4c0,4.8-.6,6.3-6.2,15.3l-6.3,10H759.3l-1-6.3-1-6.2-.2,6.2v6.3h-4.2l-4.3.2,4,.6,4,.6.3,7.6.3,7.6-7.3,8.7-7.2,8.6H731.5l-2.9-5.8a88.2,88.2,0,0,0-8.2-13.1c-4.8-6.4-5.4-7.7-5.4-12v-4.9l7.8-.3,7.7-.3-10.2-.9-10.3-.9v-10.7H684.8l.4-6c.2-5.1.1-5.9-1.2-5.3a30.8,30.8,0,0,1-7.2,1.1c-4.8.3-6.2,0-8.5-1.8s-8.6-5-9.7-5,.1,2.7.2,6l.4,6-10.4.2c-5.6.1-8.3.3-5.8.5s7.5.8,11.2,1.4l6.7,1.1.3,5,.3,5,2.7-2.1c3.7-3,10.5-2.8,16.8.4s5,2.7,5,6.8v4.2l6.5-.3,6.5-.4,9.8,9.9c5.4,5.4,11.7,12.7,14,16.3,3.6,5.6,4.2,7.2,4.2,11.8v5.4l-6-.4-5.9-.3-.3,4.4-.3,4.4-13.4,7.9c-12.2,7.1-14,7.8-18.8,7.8s-5.3,0-5.3,3-.7,3.3-12,9-12.8,6-17.4,6-5.6-.3-6.3-2.3-.9-1.1-1.3,3.1l-.5,5.4-6.8,2.9c-5,2.1-8.5,2.9-12.7,2.9h-5.8l-1.1-4.7c-1.7-6.6-7-17.8-12.5-26.2a65.2,65.2,0,0,0-4.9-7.1c-.2,0,1.2,3,3,6.7a78.6,78.6,0,0,1,8,29.5l.6,8.8-3.9,1.7a38.8,38.8,0,0,1-10.5,2.1c-6.3.4-6.7.3-7.5-1.9s-.9-1.8-1.4,2.1l-.5,4.5-17,4.7c-13,3.6-18.8,4.7-24.5,4.7h-7.5l-2.3-8.4c-2.7-9.9-8.3-24.9-11.7-31.7-2.6-5.1-3.5-15.2-1.5-16.4s1-2.2,1-4.1.5-3.4,1.5-3.4,5.5-1.4,10.5-3,11.1-3,14.4-3,5.7.4,7.5,2.6l2.1,2.7v-11.2l-4.7-.3-4.8-.3-.3-7.7-.3-7.6,8.3-2c8-2,8.1-2.1,3.6-2.1s-4.9-.3-9-5.8l-4.3-5.7-.3,4.2-.3,4.2H532v9H515.8c-9,0-17-.5-17.8-1s-1.5-2.8-1.5-7.7v-6.8l5-.5,5-.5-9.5-2.3c-17.1-4.2-16-3.5-16-10.3v-5.9h19.3c10.5.1,22.3.5,26.2,1s7.1.7,7.3.5-.7-2.5-2.2-5.1a18.4,18.4,0,0,1-2.6-9.5v-4.8l4.6-.7a57.8,57.8,0,0,1,11.8,0c9,.8,21,6.3,23.5,10.8,3.5,6.4,3.4,6.4,7.5,4a17,17,0,0,1,8.4-2.2c4.4,0,5,.3,11.9,7.2s7.3,7.3,7.3,12.4v5.2l-11.7,3.3-11.8,3.4,5,.5,5,.5.3,5.7.3,5.8h-5.3c-9.1,0-9.8-.5-9.8-6.1s-.6-5.7-7.5-3.9c-2.7.7-2.5.8,1.8.9H575v5.2c-.1,6.2-1.7,8.6-7.5,11.1-2.2,1-2.9,1.5-1.5,1.1s5.1-.8,8.3-1.1c5.6-.5,6-.4,9.3,2.8l3.4,3.3v-10.2l4.4-1.1a46.1,46.1,0,0,1,8.9-1.1c3.5,0,4.9.6,7.3,3.1l2.9,3.1.5-4.8c.4-4.1.9-4.9,3-5.4s-2.2-.6-8-.6H595.5l-.3-5.6-.3-5.6,3.8-.7a119.3,119.3,0,0,1,12.6-.6H620v5.5c0,6.1.2,6.2,6.5,4a37.6,37.6,0,0,1,10.4-1.5c7,0,12.8,2.5,22.1,9.7,3.9,3,3.8,2.8-1-1.6-3-2.8-5.8-5.1-6.2-5.1s-.8-2.5-.8-5.5.4-5.5,1.2-5.5.9-.3.6-.6-2.3.2-4.3,1c-4.2,1.8-12.1,2.1-15.9.6s-2.6-1.5-2.6-6.5,0-5.4-2.6-4.5-5.2,1-8.5,1H613l-7.6-7.4-7.6-7.5.4-6.1.3-6h-4.3c-4.2,0-4.7-.4-14.3-10.2s-9.9-10.3-9.9-14.9.4-4.9,1.8-5.2-2.9-.2-8.5.1l-10.3.5v-7.7c0-12.3-.5-11.9,17.1-11.1l14.9.8v-11.9l4.5-1.2a42.6,42.6,0,0,1,9.5-1.2c4.1,0,5-.3,5-1.8s1.6-2.3,5.3-3.6,8.5-3.4,12.6-5.3c6.5-3.1,8.1-3.5,13.2-3.1l5.9.4v-4.1c0-2.2.5-4.6,1.2-5.3s.1-1.2-3.9-1.2-5.2,0-5.5-3.3l-.3-3.2-2.3,3.7c-1.9,3-3.2,3.8-7.5,4.8s-12.1,4.3-14.8,6.7c-1.2,1-3.5,1.3-7.5,1.1s-6-.6-7.1-2.8l-1.2-2.5-.7,3.2-.6,3.3h-8c-11.8,0-20.2,4.3-26,13.2-3.1,4.7-3.2,4.8-8.4,4.8h-5.3l-.3-4.3-.3-4.2-1.4,2.8c-1.3,2.5-1.9,2.7-7,2.7a74.7,74.7,0,0,1-14.3-2.2l-8.8-2.3v-9l-9.1.4c-7.4.2-10.4-.1-16.4-2s-7.5-2.5-7.5-5.8-.3-3.2-1.7-2.6c-4.9,2.1-12.5,3.5-19,3.5s-7.3-.1-7.3-2.5a4,4,0,0,0-2-3.5c-1.6-.9-2-2.1-2-6.3s.4-5.7,3.4-8.6,3.5-3.3,10.8-2.7l15.6,1.2,8.2.7v8.2l1.7-2.8c1.4-2.3,2.4-2.7,5.9-2.7a56.3,56.3,0,0,1,11.6,2,102,102,0,0,0,15,2.7l7.7.6v5.2c0,3.7-.6,6-2,7.7l-1.9,2.5,3.7.7a90.3,90.3,0,0,0,10.5.6H543v7.5l3.4-5.1c6.1-9.1,16.3-15.5,29.7-18.8,8.3-2,18.9-2.2,18.9-.2s2.7-.1,8.3-2.9a149.7,149.7,0,0,1,14.9-6.6l6.7-2.4-6.6-4.2a106.3,106.3,0,0,0-14.7-7.5c-7.7-3-8.7-3.2-20.3-3.1l-12.1.2-1.3-3.2-1.3-3.2-.3,2.6c-.4,2.4-.9,2.7-6.6,3.2a49.2,49.2,0,0,0-10.2,2.1l-4,1.5H555v11H544v-4.5c0-2.5-.4-4.5-.9-4.5a18.1,18.1,0,0,0-4.5,2.5c-4.6,3.1-10,3.3-18.4.4l-6.2-2.1v-4.6c0-3.6-.3-4.3-1.2-3.4s-3.4,1.2-6.1,1.2-5.8-.6-9.8-3.6c-6-4.3-7.9-7-7.9-10.6s-.2-2.8-5-2.8-5.9-.6-10.5-4a45.4,45.4,0,0,0-6-4c-.3,0-.5,1.3-.5,3v3H452.5l6.5,1.7a68.6,68.6,0,0,1,11,4.2c4.4,2.4,4.5,2.7,4.8,7.8l.3,5.2H496v4.9a18.6,18.6,0,0,1-1.7,8c-1.7,2.9-2.2,3.1-7.7,3.1a18.8,18.8,0,0,1-10.7-2.7c-4.6-2.5-4.9-2.8-4.9-6.8v-4.1l-6.5.4c-4.5.3-7.7-.1-10.5-1.2-7-2.8-8-2.4-8,3.4v5l-16.2-.2c-9-.2-21.4.1-27.5.6l-11.3.9v-4.3c0-3.6-.2-4.1-1.7-3.4a41.9,41.9,0,0,1-9,1c-4.7.2-8.1.8-9.5,1.8s-12.4,2.1-16.5.4a41.4,41.4,0,0,0-8.8-1.7l-6-.6-.3-5.3-.3-5.2h-3.7c-2,0-6.4,1.2-9.7,2.6s-7.8,3.2-10,3.9l-4,1.4h6.1c5.5.1,6.2.3,7.2,2.6a11.5,11.5,0,0,1,1.2,4c0,1.1.5,1.1,3-.2s4.7-1.3,8.8-.9l11.7,1.1c9.3.9,10.5,1.8,10.5,8.2s-.3,5.7-4,9.2c-5.6,5.3-5.3,6.9,1.3,7.3l5.2.3.3,6.3.3,6.3-6.8-.3-6.8-.3-.5-4.2c-.4-3.5-.8-4.1-2-3.3a9.7,9.7,0,0,1-4.3,1,23.9,23.9,0,0,0-7,1.9c-2.3,1.1-7.6,2.2-11.7,2.5-8.9.8-16,2.5-21.7,5.4a19.4,19.4,0,0,1-17.4.1c-3.8-1.9-4-1.9-3-.1a15.4,15.4,0,0,0,2.5,3.2c1.1.8,1.6,2.9,1.6,6.4,0,7.4-.7,9-4.8,11.2s-17.8,15.5-18.7,18.5-1.1,2.1-9.6,1.7c-6.4-.4-8.7-.2-8.2.6s1.5,2.3,2.5,3.8a13.7,13.7,0,0,1,1.8,7.2v4.6h10v-13l5.7-3.7c9.1-5.8,25.3-13.1,33.9-15.3,5.9-1.5,11.2-2,21.2-2H333v10.7l-8.1,1.7c-23.6,5.1-42.4,14.8-47.5,24.7-1.4,2.7-1.8,2.9-7.7,2.9h-6.2l3.3,2.9c2.8,2.6,3.2,3.6,3.2,7.9a18.4,18.4,0,0,1-2.6,9.5l-2.6,4.6H253.4l-1.2-4.5c-1.2-4.6-5.5-8.5-9.4-8.5-1.4,0-1.8-.9-1.8-4.2s0-4.2-1.6-2-2.5,2.2-6.3,2.2a27.4,27.4,0,0,1-8.5-1.5c-3.1-1.3-3.6-2-3.6-4.9a10.1,10.1,0,0,0-2.5-6.4c-1.9-2.3-2.5-4.2-2.5-7.8v-4.9l-1.6,3a37.8,37.8,0,0,0-2.8,7c-1.2,4-1.2,4-7.1,4.5-4.3.4-5.1.7-2.9,1s3,.7,3.3,6.1l.3,5.7-3.8,1c-3.3.9-2.6,1,5.7,1.1,13.6.2,17,.9,17,3.5s.4,2.1,6.1,1.8,6.3-.1,7.5,1.7,2.6,2.1,7,2.1H250v5.7c0,5.7-.1,5.8-4.3,8.5a92.7,92.7,0,0,0-8,6l-3.9,3.3,6.7-.3c6.1-.4,6.8-.2,9.1,2.4s2.6,3.4,2.4,10.3c-.4,11.1-.4,11.2,4,18,3.3,5.1,4,7,4,11.3v5l-6.2-.6-10.9-1.2c-3.5-.4-5.8,0-9.6,1.6a21.8,21.8,0,0,1-10.4,1.8l-5.4-.3-1.1-6.5a96.6,96.6,0,0,1-1.3-13.3v-6.7h3.9a11.1,11.1,0,0,0,6.2-1.9c2.2-1.7,2.4-2.5,2.1-8.6l-.4-6.7-4.6.7a24.6,24.6,0,0,0-5.4,1.2c-.5.2-.8,2.7-.8,5.5s-.5,5.8-1.9,7.2c-3.3,3.6-7.1,11.7-7.1,15.2v3.4h-6.4c-5.9,0-6.8-.3-9.9-3.3s-5.7-8.6-6.4-23l-.6-11.7h4.2c5.2,0,8.8-1.9,12.4-6.4l2.8-3.6h-6.9l-.7-10.1c-.6-8.1-.5-10.3.6-11s0-.9-2.8-.9c-6,0-7.3.8-7.3,4.2,0,1.8-1.2,4.5-3,6.8-3.5,4.4-6.9,11.6-7,14.6s-1.2,2.4-8.2,4.3a65.9,65.9,0,0,1-13,2.1c-4.6,0-4.8.1-4.8,2.9s-.9,3.7-3.2,5.5l-3.3,2.6h4.2c3.6,0,4.3.4,4.8,2.2,2,9,2.5,11.8,2.5,15.9,0,5.6-.5,5.9-10.1,5.9-6.9,0-7,0-8.4-3.3l-1.4-3.2v4.4c0,3.6-.8,5.3-4.9,10.5-6,7.6-9.1,12.6-9.1,14.8s5,6.7,10.7,8.5c2.9.9,5.4,2.4,5.6,3.2s.5-4.7.6-12.4c.1-15.4.7-17.2,6.1-20a21.3,21.3,0,0,1,7.9-1.5h5l2.1,5.8c3.1,8.1,7,25.4,7.7,34.1l.6,7.4-9-.6c-5-.3-10.6-1.2-12.7-2.1s-3.6-1.2-3.6-.7,1.6,2.6,3.6,4.9c4.2,4.9,10.4,8.8,15.7,9.7,2.1.4,7.1,2.6,11.2,5s9.4,4.8,11.8,5.4,4.7,2,6.5,5.4a21.6,21.6,0,0,0,5.7,6.6c3.2,2.2,3.9,2.3,7.4,1.2,7.7-2.3,13.4-1.4,27.6,4.1l13.3,5.3.6,3.8c.8,4.8,3.7,10.5,6.6,13.2s3.3,1.9,10.9,1.7c12.5-.5,35.4,5.1,49.5,11.9,4,2,5.3,3.4,7.8,8.3s3.3,5.5,3.7,4.7,64.8-2.7,75.5-1.2a62,62,0,0,1,16.8,5.2,130.6,130.6,0,0,0,15.4,5.9c5.8,1.7,7.1,1.8,9.9.6a16.4,16.4,0,0,0,5.3-4.2l3.1-4c.5-.6,6.1-1.7,12.3-2.4,15.8-1.8,44.6-.8,60.8,2,11.3,1.9,13.7,2.7,25,8.4,14.2,7.1,24,10.2,29.4,9.2a20.7,20.7,0,0,0,7.8-4.2c5.1-4.1,27.6-15.3,36.8-18.3a77.1,77.1,0,0,1,14-2.7c8.9-.8,14.6-2.6,18-5.8,1.5-1.4,7.9-4.1,15.5-6.6,15.3-5,30.4-10.7,39.5-14.8,5.1-2.2,8.5-3,15.5-3.4,11.9-.8,19.4-3.6,25.6-9.9,2.7-2.6,6.5-5.3,8.6-5.9,16.9-5.4,47.6-19.3,61.8-28,4.4-2.7,7.7-4,10-4,4.8,0,9.1-1.9,15-6.9,2.7-2.2,6.5-4.6,8.5-5.2a125.8,125.8,0,0,0,13.5-6.3c16.9-8.7,27.8-20.9,30-33.4a32.3,32.3,0,0,1,2.1-7.2,37,37,0,0,0,2.4-8.2c6.8-40.1,6.8-40,9.3-42.7s4.5-6,4-12.6-.2-6.9,3-13.6c4.3-8.9,5.6-14.3,5.7-23,0-6.1.2-6.7,3-8.7s3.7-4.4,1.5-8.6-.8-24,3.8-33.6c2.1-4.3,2.2-5.2,1.4-23.3s-.6-19.9,1.2-29,9.1-54,12.7-77.7a82,82,0,0,1,3.5-14.4,16.2,16.2,0,0,0,1.5-9.5c-2.2-17.2-1.6-23.4,4.9-45.6,7-24,9.5-41.3,10.2-70.3l.6-23.2h10.3l3.4,9.2c1.8,5.1,7.8,20.1,13.3,33.3,19.1,46.2,24.5,62.5,30.2,91,6.2,31.2,8.9,91.4,5.1,112.3-1.4,7.6-2.6,10.9-6.7,18-5.6,9.9-8.5,18.5-9.4,28.7-.3,3.8-1.5,11.4-2.6,16.8-1.6,7.8-2.6,10.6-5.4,14.3-5.5,7.2-7.6,15.6-8.2,32.4s.7,23.7,6,29.7c3.6,4.1,9.7,7.2,14.2,7.3,1.7,0,8.2,1.4,14.5,3,17,4.5,29.7,5.7,39,3.8,14.2-3,25.6-10.4,32.7-21.6,4.3-6.6,11.7-25.7,13.4-34s.6-29.5-2-42.5c-1.1-5.4-3.6-14.4-5.4-20-6.9-20.3-9.7-42.1-9.7-75,0-16.8,0-16.9,3.2-24,4.3-9.9,4.6-15.5,1.4-26.9-5.6-20.4-7.4-42.1-5.6-70.8,1.5-24.5,1.6-60.8.1-76.5-3.3-36.4-4.3-45.3-6.6-58.2-5.9-34-19.3-76.6-33.6-107.2-7.3-15.6-7.9-18.2-8.9-40.6-.5-11-1.4-26.8-1.9-35s-.8-49.2-.6-98.8l.5-83.7,2.2-3c1.8-2.5,2.9-3,6.6-3a16.5,16.5,0,0,0,7.1-1.6c2.4-1.4,4.5-1.5,13.3-.9l10.5.7,1.1,15.1c.6,8.4,1.8,24.4,2.7,35.7s1.9,25.7,2.5,32,1.2,16.7,1.5,23c2.7,50.2,7.5,85.8,15.2,112,4.7,16,5.1,16.6,18.1,26.3s29.1,18.4,35.2,19.3,9.8-2.7,13.5-10.1c2.7-5.5,3-6.8,2.9-15.5-.2-18.1-2.8-31.9-21.9-117-6-27-23.5-97.4-31.5-127.1-4.1-15.1-4.8-21.7-2.9-26.6a91.2,91.2,0,0,0,2.5-11.8c.7-5,2-12.6,2.8-17s1.8-17.5,2.2-29l.7-21,5.3-5.7c5.5-6,12.8-19.3,14-25.4l.6-3.5,8.4.2c13.6.5,12.8,2.9,12.8-37.6V745.7h9.5v-4.3c0-4.7-2.8-23.5-5.9-40.2a127.2,127.2,0,0,1-2.1-16.7v-5.6l4.1-.7a16.2,16.2,0,0,0,7.8-4c3.5-3.2,3.6-3.6,3.4-9.7s-4.5-21.2-11.7-37.7c-3.6-8.1-4.6-11.6-4.6-15.7s.2-5.4,2.4-5.4,7.6-3.7,7.6-6.4a48,48,0,0,0-2.5-9.6,46.5,46.5,0,0,1-2.5-12.1v-4.7l17.8-11.5,41.2-26.7c27.1-17.5,25.9-16.6,27.6-20.5s.3-6.4-4.5-10.9l-3-2.9-9.3,5.6c-5.1,3-23.5,14.3-40.8,25.1-30.8,19.1-31.6,19.6-36.9,19.6h-5.4l.6-9.3c.6-10.8-1.4-19-8.9-36.8-4.2-10-4.5-11.1-4.2-18.5l.3-7.9,13.5-1.1c15.8-1.3,31.3-3.3,32.9-4.3s-9.2-49.9-19.9-87.1l-5.5-19c-2.6-9.2-11.5-36.9-15.1-47l-3.7-10.5,1.2-12c1.5-16.2,1.4-20.4-.8-32.6-5-27.7-18.9-45.7-45.7-59.2-14.7-7.4-43.7-14.8-65.2-16.6-19.2-1.6-46.9,1.1-66.8,6.4s-40.5,16.3-50.3,26.9c-2.1,2.2-3.3,2.6-7.8,2.6-2.9,0-5.3-.1-5.3-.3l-1.5-13.2c-2-18.2-1.9-24.7.5-29.5a18.8,18.8,0,0,0,2-6c0-1.2,1.6-5.6,3.6-9.8s4.1-11.1,5.5-19c2.6-15.3,2.5-18.7-.5-21.5s-2.4-2.6-2.9-26.2c-.4-16.5-1.1-26.2-2.1-31-7.7-33.5-23-52.7-49.4-61.7C853.4.5,840.6-1.2,828.1.8Zm193.3,551.3c2.2,2.9,2.6,4.5,2.6,9.8,0,7.2,2.4,22.7,4.7,30.8a116.1,116.1,0,0,0,4.9,12.9c4.2,9.1,4.7,16.6,1.3,19.7s-5.9,9-5.9,13.7v4.5l-17,10.6c-16.5,10.3-17.2,10.6-22.8,10.6-9.7,0-9.6.3-8.3-20.4,1.8-27.9,4.8-41.4,11.5-52.6,4.4-7.2,15.6-37.2,15.6-41.6,0-1,1.5-1.4,5.4-1.4S1019,549,1021.4,552.1ZM1042,673.5c0,3.5-.8,6.4-3,10.3a53.2,53.2,0,0,0-4.3,11.5c-1.3,5.4-1.3,6.6.3,11.7s6.8,14.4,9.6,16.7,1.8,7.8-.2,17.4-.8,18.1,4.3,30.9c3.4,8.8,3.5,9,2.8,19.2s-.6,10.6,1.6,14.5a20.7,20.7,0,0,0,5.6,6.1c3,1.9,3.3,2.5,3.3,7.1s-.3,5.3-7.7,13.8l-7.8,8.9-5.3-.2-5.4-.2-2.9-11.4c-5.6-22.5-14.2-45.2-27.3-72.7-6.1-12.6-7.6-16.6-7.6-20.4s.5-5.1,1.1-5.7-.4-2.8-4-7.1-6-6.6-7.1-7.2-2-2.1-2-6.4.1-5.3,3.3-6.2,3.2-1.3,3.7-5.9l.5-5,19-12.2c18.1-11.7,19.2-12.3,24.3-12.3h5.2ZM687.4,687.3c1.4,10.7,1,12.8-4.4,19.9s-5.9,8.5-4,8.5,1,2.4,1,5.4c0,4.9-.2,5.5-2.7,6.5a29.9,29.9,0,0,0-5.7,3.6c-2.5,2-2.8,2.6-1.7,3.9s1.1,3.4.7,7.3c-1.2,13.1-2.3,20.9-3,22.5s-3.6,3.3-6.9,5c-7,3.8-13.1,9.4-14,12.9-.3,1.3-1.7,5.5-3.1,9.2-4.4,11.4-3.4,22.6,2.4,29.2,1.6,1.8,1.8,5.1,2.2,34.1l.4,32.2-9.6,6.1c-8.6,5.4-10.3,6.1-14.7,6.1h-5.1l-3.1-5.4c-1.6-3-3.5-5.7-4.1-6.1s-1-3-1-5.9V877l5.9-2.5,5.9-2.6-3.9-9.8c-11.7-29.1-14-41-10.1-53.4a282.6,282.6,0,0,1,11-29.2c2.5-5.6,2.7-6.7,1.6-8.3s-1.4-4.3-1.4-7.2c0-5.1.2-5.5,7.8-14.5,16.1-19.2,34.7-45.1,38.2-53.3a38.7,38.7,0,0,1,6.1-9c3.9-4.2,4.5-4.5,9.4-4.5h5.2ZM1121,956.9c.6,2.4,1.5,5.6,2,7.3s15.5,61.1,18.9,75.5c8.3,35,15.9,69.4,24.2,110,6.2,30.1,6.3,30.7,6.4,47.2s-.1,16.7-2.4,19.2-3.2,2.6-10.1,2.6-8.5-.4-14-3.2c-7.4-3.8-11.5-8.7-17-20.3-9-18.8-14.8-43.9-18.5-79-1.5-14.8-2.2-21.7-5-46.5s-9.5-99.3-9.5-106.2c0-1.9.7-2.9,2.8-3.6a29.9,29.9,0,0,0,6.7-4c3.2-2.5,5-3.1,9.2-3.1h5.2ZM937,1533.2c3,1.5,3,1.7,3,9.9,0,14.6-.7,17.4-5.3,20.7l-4,2.9h3.6c3.6,0,3.7.1,3.7,3.9a69.2,69.2,0,0,1-.7,8.6c-.5,4.3-.9,4.9-4.7,6.5l-4.1,1.9h6.8l-.6,8.7c-1,13-1.6,14.4-6.5,16.1a22.4,22.4,0,0,0-7.3,4.3c-3,2.8-3.1,3-1.5,5.4s1.6,4.6,1.6,8.3v5.9l-5.9,2.7a27.9,27.9,0,0,1-11,2.6H899v-8.5l-1.5,4.7-1.4,4.8h-6.2c-10.2-.2-11.1-.7-11.5-6.3-.3-4,.6-7,5.3-17.9,3.1-7.3,6.6-14,7.7-15s3.7-1.7,7.9-1.7,5.9.1,6,2.7.4,1.6,1.5-2.2,1.4-5.3,1.4-5.8-2.2-.7-5-.7h-5v-5.5a24.1,24.1,0,0,1,1.7-9c1.6-3.4,1.8-3.5,7.5-3.5s5.8-.3,5.8-1.8,1.9-2.7,5.3-4.4c5.1-2.6,5.1-2.7,2-2.7s-3.3-.2-3.3-4.9,2.2-15.8,5.5-30c.5-1.9,1.2-2.2,6.1-2.2A23.4,23.4,0,0,1,937,1533.2Zm-73,110.1v6.6l-9.8,9.9-9.7,9.9h-5.8c-5.3,0-5.8-.2-6.8-2.8s-.9-5.6-.7-9.2c.4-8.1,2.5-11.4,11.1-16.9,5.9-3.9,6.6-4.1,13.9-4.1H864Zm66,4.7a40.6,40.6,0,0,1-2.1,11.4c-2.3,7-4.6,8.9-19.8,16.2-6.9,3.4-9.6,4.1-14.3,4.1H888v-5.4a35.8,35.8,0,0,1,1.5-9.6,31.7,31.7,0,0,0,1.3-4.4,32.2,32.2,0,0,0-5.3.5c-3.6.4-4.1.6-1.7.7s3.2.3,3.2,4.7a45.9,45.9,0,0,1-2.2,11.1l-2.2,6.6-10.8-.4-10.8-.3v3.6c0,3.6.1,3.6,4.8,4.2a40,40,0,0,1,7.6,1.6c2.8,1.1,2.8,1.2,2.4,7.9-.3,3.7-.8,7.5-1.3,8.5s-.4,1.7,2.1,1.2,5.2-1.4,7.9-2.3l5-1.7-4.7-.3-4.8-.3v-5.8a37,37,0,0,1,1.6-10.3c1.5-4.5,1.6-4.6,7.9-6.2a60.3,60.3,0,0,1,12.5-1.6h6v5.2c0,3.4-.6,5.8-1.7,7.2s-.4.9,1.3-.7,3.9-2.7,8.3-2.7h5.4l-.6,8.7c-.6,10.3-1.2,12.3-3.9,12.3s-7.7,2.9-8.4,5.4a5.8,5.8,0,0,1-3.2,3.5A142.9,142.9,0,0,1,889,1725c-1.4.2-.4.5,2.2.6h4.7l.3,4.6.3,4.5,4-3c3.3-2.5,5-3,9.3-3.1H915v6.4c0,12.8-5.2,31.6-8.7,31.6s-9.1,3.9-11.1,6.5-10.2,3.4-30.4-1.6l-16.8-4.2v-5c0-3.9.5-5.7,2.3-7.6s1-1.8-5.6,1.7c-10.4,5.6-16,5.7-30.8.6l-12.1-4.1c-2.9-.9-2.4-9.5,1.2-17.8l2.9-7,12.8.2c12.9.3,35.9,1.9,40.1,3,2,.5,2.2,1.1,2.2,6.4v5.9h7.3c10.5-.2,15.4-1.6,6-1.8H867v-12.9l3.3-.5,8.2-1.3,5-.8-5.7-.3-5.8-.3v-7.4l-1.6,3.7c-1.4,3.5-1.8,3.8-5.7,3.8-10.8,0-23.3-3.8-33.6-10.1l-5.1-3.1.3-6.1c.3-5.9.4-6.2,4.6-9.4,2.4-1.8,3.7-3.3,2.8-3.3s-1.6-1.1-1.6-5.3.3-5.4,4.8-9,5.4-3.7,9.9-3.7H852v-3.6c0-3,.7-4.3,4.3-7.5s4.3-3.8,12.7-4,8.3-.2,4.3-1.2l-4.3-1v-4.9c0-7.4,1.1-8.8,7-8.8a49.5,49.5,0,0,1,9.9,1.2l5,1.1.3,5.6.3,5.6,1.4-5.8c1.2-4.6,1.8-5.7,3.5-5.7s5.9-.9,10.6-1.9a105,105,0,0,1,15.8-2H930Zm-339,6.5c0,4-.5,7.3-1.2,8s-5.4,1.2-14,1.2H563v-5.9c0-6.5-.8-5.7,9-8.6a48.3,48.3,0,0,1,11.8-1.4H591Zm174,5.6v5.5l-4.2.6a38.9,38.9,0,0,1-8.3.3l-4-.3-.3-5.8-.3-5.7H765Zm-21.6-1.9c1.2,1.8,1.6,4.2,1.4,7.6l-.3,5.1-8.5,2.9c-6.7,2.3-9.9,2.9-15,2.7l-6.5-.3-.3-7.6-.3-7.5,8.8-2.6a73.8,73.8,0,0,1,13.9-2.7C741.1,1655.7,742,1656,743.4,1658.2ZM439,1664.1v5.3l-7.2,2.7c-7.6,2.7-18.1,3.6-19.3,1.6s-1.1-.7-2.1.1-4.1,1-8.8.7-6.9,0-6.1.5,2.1,11.7.5,11.7-3.6,1.6-6.6,3.5-6.4,3.5-10.4,3.5-5.2-.3-6.2-2.5a6.3,6.3,0,0,0-2.8-3c-4.4-1.4-6-4.4-6-11s.2-6.5,3.3-8.9,14-3.7,18.1-.5l2.6,2v-9l4.3-.5,6.7-1c1.4-.2,10.9-.4,21.3-.5H439Zm358.3,3.1c1.7,1.9,3.7,2.7,8.7,3.4a98.9,98.9,0,0,1,12.5,2.8l6,1.9.3,5.2c.3,4.6,0,5.5-2.5,7.8s-3.3,2.5-10.6,2l-7.9-.4.6,6.6c.3,3.7.8,9.3,1.2,12.6.5,5,.2,6.8-2.1,12.2l-2.7,6.4H790l-2.3-5.2-2.3-5.3.4,6.8.4,6.7-3.3.7c-3.3.8-3.3.8,1.6,1.3l5,.5.3,7.2.3,7.3h-26l-.3-4.9-.3-5-4.8,2.5a21.8,21.8,0,0,1-21-.5c-5.4-3-10.9-4.6-18.9-5.6l-4.8-.6v-11.4l-2.1,3.2c-2,3.1-2.4,3.3-8,3.3H698l-5.5-11.2c-4.5-9.2-5.5-12.2-5.5-16.4V1696l12.1-4.7c9.3-3.6,13.3-4.6,17.8-4.6s5.9.2,6.9,2.5c2.4,5.3,1.5,11.2-3.3,20.8s-2.6,8.2,5.4-5.3l5.4-9h10.1a96.2,96.2,0,0,1,16.1,1.4,38.8,38.8,0,0,0,6.3,1.2c.8-.9-15.7-5.6-19.4-5.6-.6,0-.5-6.9.2-12.6s.7-5.1,5-6.2c5.9-1.6,11.3-1.5,20.7.3l8.3,1.5c.2,0,.4-2.2.4-4.9,0-5.7.2-5.8,9.8-6C794.3,1664.7,795.4,1665,797.3,1667.2Zm-99.5,8.7c.7.7,1.2,3.8,1.2,6.9,0,6.6-.4,6.9-9.1,6.9H684v-15h6.3C693.9,1674.7,697.1,1675.2,697.8,1675.9ZM426,1682.5v4.8l4.1-.4a79,79,0,0,1,11.5.3l7.4.7v5.2c0,2.9-.5,5.7-1.2,6.4s-.2,1.2,3.5,1.2H456v5.3c0,2.9-.5,5.8-1.2,6.5s-3.6,1.2-6.5,1.2h-5.2l-.3-5.5-.3-5.5-6,5.1c-8.8,7.6-9.4,7.8-19.3,8.5l-9.2.7v-8.1c0-7.9.1-8.1,3.3-10.6l3.2-2.6H407v-16.9l3.8-.4,9.5-.5,5.7-.2Zm-20,15.3v9.1l-5.2,5.9c-5.1,5.7-5.5,5.9-10.3,5.9-3,0-6-.6-7.3-1.6s-2.2-1.4-2.2,2.5v4.1h-6.7c-10.8,0-11.3-.3-11.3-6.4,0-2.9.5-5.7,1.2-6.4s11.9-1.5,14.6.4,2.2,1.4,2.2-2.5.6-4.6,5.6-9.3a54.5,54.5,0,0,0,7.2-8c1.5-2.5,2.2-2.8,6.9-2.8H406Zm80.7-4.1a52.6,52.6,0,0,1,9.5,4.6c3.6,2.5,3.8,2.9,3.8,8.1s.1,5.3,1.6,3.9,4.9-2.7,14.4-2.4l8.5.3.3,5.5.3,5.5-7.9,2.7a42.2,42.2,0,0,1-13.5,2.8H498v-10l-3.2,2c-2.6,1.6-5.1,2-12,2H474v5.2c0,4.8-.4,5.6-4.2,9.5s-4.3,4.3-10.9,4.3c-3.7,0-7.9-.4-9.3-1s-2.6-1.4-2.6-6.7.4-6.2,3.5-9.6,4-3.7,8.5-3.7h5v-5.3c0-3.7.9-7.2,3.2-12.4l3.3-7.3h5.3A39.3,39.3,0,0,1,486.7,1693.7Zm-142.1.1c2.5.7,4.4,1.7,4.4,2.5s1.3,1.4,4.5,1.4a19.6,19.6,0,0,1,7,1.2c2.2,1,2.5,1.7,2.5,6.5,0,7.2-2.1,9.3-9.3,9.3s-7.7-1.2-7.7-4.7a7,7,0,0,0-.2-2.3l-5.2,1.5c-2.9.9-8.9,1.5-14.3,1.5H317v-5.4c0-4.4.3-5.6,1.8-6.1a25,25,0,0,0,5.8-3.5c3.3-2.5,4.8-2.9,9.7-3A53.3,53.3,0,0,1,344.6,1693.8Zm479.1,17.1c1.8,1.7,2.3,3.2,2.3,7.5v5.3H810v-15h5.7C820.1,1708.7,821.9,1709.2,823.7,1710.9ZM435,1723.8c0,6.7-2.3,8.8-9.7,8.9H420v-5.4c0-7.2,1.4-8.6,9.1-8.6H435Zm60.5,4.3c3.4,1.4,3.5,1.7,3.5,6.8,0,9.9.1,9.8-10.4,9.9-8,.1-8.7.2-5.3,1.1l3.8,1-.3,6.2-.3,6.1-15,.3c-11.7.2-16.5-.2-22-1.5l-7-1.8-.3-4.4c-.4-5.4.3-8.5,2.4-10.5s19.9-2.2,24.9-.2l3.5,1.5v-5.3c0-5,.2-5.4,3-6.6a12.6,12.6,0,0,0,4.1-2.6C481.6,1726.2,491,1726.3,495.5,1728.1Zm39.8.3,6.7.6v10.2l-7.3,1.8a66.3,66.3,0,0,1-10,1.7c-2.2,0-3.1.7-4.4,3.5l-1.7,3.6-6.6-.3-6.5-.3-.3-7.6c-.3-7-.1-7.9,2.3-10.8s2.8-3.1,11.8-3.1C524.4,1727.7,531.5,1728,535.3,1728.4Zm-165.4,1.4c2.9,1,3.1,1.4,3.1,6.4s.7,6.5,6.6,6.5H383v10.8l-6.2,2.1a148.4,148.4,0,0,1-34,6.7l-9.8.7v-9.2l-9.4,4.5c-11.3,5.3-22.7,8.4-31.3,8.4H286v-10.6l4.7-1.2a88.7,88.7,0,0,0,11.7-4.7c3.8-1.9,8.2-3.5,9.7-3.5s6.8-3.7,8.1-6.8c.1-.4,3.8-2.7,8-5,6.6-3.6,8.5-4.2,13.8-4.2h6V1741l2.1-1.9a30.9,30.9,0,0,0,4.6-6.1c2.4-4.1,2.7-4.3,7.2-4.3A30.3,30.3,0,0,1,369.9,1729.8ZM559.4,1745a55.5,55.5,0,0,1,2.3,10.9l.5,5.8h-5.4a43.3,43.3,0,0,1-10.2-1.5,48.3,48.3,0,0,0-11.3-1.5H529v-5.9c0-5.7.1-6,3.6-8.2,5.8-3.6,10.4-4.8,17.9-4.8h7ZM417,1749.9c0,5.2-.1,5.4-7.6,13l-7.6,7.8h-9.2c-13.4,0-13.6-.1-13.6-6.6,0-3,.3-5.4.8-5.4s3.5-2.4,6.8-5.3c7.3-6.4,12.9-8.2,25.2-8.6H417Zm28.8,8.2c6.9,3,15.8,5,26.5,6.1l6.7.7v6.1c0,3.4-.4,6.7-.8,7.3s-4.3,3-14,5.4c-13.2,3.2-20.7,2.5-38.9-3.4l-14.3-4.7v-5.3c0-5.9.9-7.1,9.5-12.6,4.6-2.9,5.5-3.1,12-2.7A35.9,35.9,0,0,1,445.8,1758.1Zm359.9,4.3,7.3,1.7v11.1l-9.3,6.3c-9.9,6.6-12.6,7.3-22.9,5.6-3.8-.7-3.8-.7-3.8-5.5s.6-5.6,5.5-12.1c3-4,5.5-7.6,5.5-8S798.2,1760.7,805.7,1762.4ZM313,1775.1v5.4l-4.7,1.7c-12.6,4.4-21.1,6.5-26.5,6.5H276v-11l4.8-2.3c7.5-3.8,14.7-5.3,25.5-5.6H313Zm546.3-.9L873,1777v10.4l-4.2,1.2c-8.7,2.3-17.7,3.1-34.5,3.1H817v-10.5l7.2-5.2,7.2-5.3,7,.3A176.5,176.5,0,0,1,859.3,1774.2Zm-468,7c1.6,1.1,1.8,2.4,1.4,7.7a100.7,100.7,0,0,1-2.9,14.8c-2.4,8.2-2.7,8.6-7.3,11.5l-4.9,3,4.2.3c4.1.3,4.1.3,4.7,5,.9,6.6,3.3,16.1,4.6,18s.9,1.4.3-.3-.9-8.4-1.2-16.2l-.4-14.2,6.8-3.4c14.7-7.3,19.4-8.7,29.8-8.7H436v10.2l3.4-2.1c5.1-3.2,12.3-2.8,24.2,1.3a134,134,0,0,0,13.7,4.1c3.4.7,3.7,1,3.7,4.1v3.4h10.8l5.1,7.4c4.4,6.5,5.1,8.1,5.1,12.3v5l-6,1.6a45.3,45.3,0,0,1-10.9,1.7c-4.6,0-4.9-.1-5.5-3.1a92,92,0,0,1-.7-9.8c-.1-6.4-.1-6.5-1.4-3.6s-1.4,6.4-1.5,10.9v7.9l-12.7-.9c-7.1-.5-21.9-.8-33-.7l-20.3.2v-4.2c0-3.3-.2-3.8-.9-2.2a13.6,13.6,0,0,0-.9,4.7c-.1,2.8-.2,2.8-7,2.8s-7-.1-7.9-2.8-1-2.2-1.1,2.4v5l-6.2,1.3c-3.5.7-13.5,1.5-22.2,1.8l-15.9.5.6-8.3c.4-4.6.7-10.5.7-13.2s.4-4.7,1.3-4.7a30.1,30.1,0,0,0,6.2-2.4l5-2.4H351v-5.8c0-6.9,2-13.7,6-20.9l3-5.3h-2.5c-2.4,0-2.5-.3-2.5-5.3,0-7.9.9-8.6,11.5-9C387.3,1779.7,389.5,1779.8,391.3,1781.2Zm508.3,4.1c.9,5.1-.2,18.4-2.2,25.5-1.5,5.4-1.9,6-5.3,6.9s-8.1,3.7-8.1,5.6-55.4,1.2-70-2.3c-1.4-.3-2.2-.3-1.9,0,1.6,1.8,30.6,6.7,39.7,6.7H858V1839l4.7-.7,13-1.3,8.3-.6v5.5c0,5.4-.1,5.6-5.7,11a81.7,81.7,0,0,1-23.1,15.6c-7.3,3.5-8.3,3.7-17.9,3.8s-10.4.2-13.6,2.7-10.1,3.5-26.3,1.1c-5.8-.8-10.8-1.3-11-1.1s4.9,1.5,11.5,2.7L810,1880v11l-19.2-.6c-23.2-.7-34.2-2.9-47.8-9.6-4.3-2.1-4.4-2.1-2-.2,7.5,6.2,27,13.1,36.7,13.1H783v10.8l-11.1,4.7c-6.1,2.6-14.2,5.8-18,7-13.7,4.7-38.4,5.7-48.8,2-6.7-2.3-10.2-5.4-13-11.4s-2.6-6.5-2.5-18.6c.1-7.2.5-14.2,1-15.7s4-5.4,7.8-8.7c6.1-5.4,7.4-6.1,11-6.1h4.2l-.4-6.3-.4-6.3,6-3.7c4.8-2.9,7-3.7,10.9-3.7s5,.3,6,2.7l1.1,2.8v-3.5c.1-3.3.8-3.9,12.6-11.8s12.7-8.2,18.4-8.2,7.1.6,14.5,4.6l8.6,4.6v-11.2h3.8c3.6-.1,3.5-.2-2.5-2.2l-6.3-2.1v-10.1l7.9-5.4,7.9-5.3,16.3,1c26.9,1.8,48.6-1.2,61.4-8.2,5-2.8,7.1-3.4,12.7-3.5h6.7ZM347,1793.6c0,5.8-.1,5.9-3.1,6.5a53,53,0,0,1-7.5.6H332v-5.3c0-6.4,1.4-7.5,9.8-7.6H347Zm432,.5c0,4.6-.4,5.6-2.5,7s-4.5,1.6-7.5,1.6h-5v-5.2c0-7.2,1.7-8.8,9.2-8.8H779Zm-304,5.6v7h-5.5c-3,0-6.6-.5-8-1.2s-2.5-1.7-2.5-7v-5.8h16ZM310,1802a68.5,68.5,0,0,1-1.1,10.2c-1.3,7.2-.6,11.6,2.6,15.4,2,2.2,2.5,4,2.5,8s-.2,5.1-2.2,5.3,1.5.5,6.2.9l15.3,1.5,6.7.6v7.8c0,6.5-.3,7.9-1.7,8.5s-9.6,1-19,1.3l-17.3.5v-5.7c0-4.8.5-6.5,3.1-10.2l3-4.5-6.4.7a71.7,71.7,0,0,1-13.1-.1l-6.6-.7v-6.2c0-10.4,4.4-21.6,12.7-31.9,4.4-5.7,4.5-5.7,9.9-5.7H310Zm-25,2.7c0,6.7-1.6,10-4.9,10s-9.1,3.7-11.4,9.1l-2.1,4.9h-5.2c-6.3,0-6.4-.2-6.4-12.3s.2-13.7,6.4-13.7c2.9,0,5.9-.7,7-1.5s4.4-1.5,9.3-1.5H285Zm-107.7,5.7a78.9,78.9,0,0,1,1.7,12v4.3H163.5l-1.7-4.3a29.4,29.4,0,0,1-1.8-9.7c0-7.1,3-9.9,10.5-10h5Zm165.6,1.5a80.5,80.5,0,0,1-1.3,12.8c-1.4,7.5-1.7,7.7-14.7,7.9h-7.5l-1.7-3.5c-1.2-2.5-1.7-6.2-1.7-12.5v-8.9l5.8-.6,7.2-.9a69.8,69.8,0,0,1,7.8-.5H343Zm184.3,7.8c5.3,0,5.8.2,7.7,3.4a15.3,15.3,0,0,1,2.1,8.3v5l-7.8,1.6a88.4,88.4,0,0,1-15.2,1.7h-7.5l-3.7-5.5c-3.2-4.6-3.8-6.4-3.8-10.6v-5.1l11.3.6C516.4,1819.4,524.1,1819.7,527.2,1819.7ZM178,1838.4a41.4,41.4,0,0,1-1.1,9.5c-1,3.8-1,3.8-6.2,3.8h-5.2l-1.3-5.3a58.7,58.7,0,0,1-1.2-9.5v-4.2h15Zm16.2,2.9c2.4,1.2,3.6,1.4,5.5.5a24.5,24.5,0,0,1,7.8-1.1H213v5.2c0,6.6-1.7,9.2-9.5,15.1a157.3,157.3,0,0,0-12.5,10.6c-6.1,5.7-6.8,6.1-11.2,6.1H175v-6.3a91.3,91.3,0,0,1,2.5-16.7c1.4-5.8,2.7-11.5,3-12.8s1.2-2.2,5.6-2.2A21.2,21.2,0,0,1,194.2,1841.3Zm106.8,9c0,8.2-1,9.4-7.5,9.4-3,0-6.6-.5-8-1.2s-2.6-1.6-2.3-6.7.3-5.6,3.8-6.2a66.5,66.5,0,0,1,8.8-.8H301Zm161.1,5.5,21.6,1.3,1.6,4.1,1.6,4v-9.5h26.5l3.9,9.3c7.2,17,12.6,33.9,12.6,39.3s-.1,5.2-3.1,5.8a71.3,71.3,0,0,1-9.4.6c-6.3,0-6.4,0-9.6-4.3l-3.8-4.9c-.3-.4-.5,2.1-.3,5.6l.4,6.3-10.9,1.1c-5.9.6-15.6,1.4-21.5,1.8-9.8.6-11.1.4-15-1.6-6.8-3.5-25.5-16.2-34.5-23.5l-8.3-6.6v-4.8c0-4.3,4.3-17.2,8.1-24.3C423.3,1853.3,422.6,1853.3,462.1,1855.8Zm-226.6,4.4c4.4.8,9.2,1.4,10.8,1.5s2.7.3,2.7,3.7v3.8l2.3-3.2c2.1-3.1,2.6-3.3,8.5-3.3H266v7.5l2.3-2.8c2-2.5,3.1-2.9,9.9-3.4,5.1-.4,8.6-.2,10.7.7s3,1.7,3,5.4v4.1l1.4-2.7,1.5-2.6h40v4.6c0,3.5-1.5,8.1-6.1,18.6-3.4,7.6-6.8,15.7-7.5,17.8a24.5,24.5,0,0,1-5.7,7.9c-4.1,3.8-4.4,3.9-10.2,3.5a79.5,79.5,0,0,1-13.2-2.7l-7.3-2.3v-6.6a107.9,107.9,0,0,1,1.9-16.2,76.6,76.6,0,0,0,1.6-9.8c-1-1-4.7,14.3-5.2,21l-.6,7.8h-6.2a32.2,32.2,0,0,1-12.1-2.4c-11.7-4.7-11.4-4.4-11.4-9.8s-.7-5.8-6.7-3.3a26.2,26.2,0,0,1-8.4,1.5H233V1893c0-4.4-.3-5.4-1.2-4.5s-12.1,1.4-17.2-.7a47.9,47.9,0,0,0-8.1-2.7l-3.5-.6v-5.8c0-6.8,1.9-13.7,5-18.1l2.3-3.2,8.6.7C223.6,1858.5,231.1,1859.4,235.5,1860.2Zm140.8,9.4a61.2,61.2,0,0,0,18.1,8.6l5.9,1.7-.8,8.2c-.5,4.4-.9,13.2-.9,19.5V1919l-3,.9c-13.3,3.7-42.1,7.8-54.6,7.8h-7.6l-.7-16.5-.7-16.6,6.6-8.2a135.6,135.6,0,0,0,9.8-13.4c3.6-5.7,3.9-5.9,16.5-6.1C371.4,1866.7,372.6,1867,376.3,1869.6ZM668,1880.1c0,7-2.5,8.9-10.6,8.4l-5.4-.3v4.7c0,4.6-.2,4.9-5.2,8.6a213.8,213.8,0,0,1-20.1,12.9c-4.5,2.5-7.1,3.3-10.8,3.3H611v-4.8a40.1,40.1,0,0,1,2-10.6,39.5,39.5,0,0,0,2-8.1c0-1.9,1.7-2.9,12.3-6.9,13.6-5.2,21.7-6.1,23.6-2.9.8,1.4,1,.8,1.1-2.8s.3-4.6,2.8-5.6a30.7,30.7,0,0,1,8-1.2H668Zm12.4,13.3c.4,3.2.9,8.6,1.2,12l.6,6.2-4.8.3-4.8.3,5.2,2.8a69.2,69.2,0,0,0,11.5,4.7c3.4,1.1,9.2,3.1,13,4.6l6.7,2.8v10.3l-10.7,4.1c-32,12.2-49.9,15.8-55,11.1-1.4-1.4-4-2.4-7.1-2.7-4.7-.4-5.3-.8-13.1-9.2s-8.1-9-8.1-13.7v-4.8l9.1-5c5-2.7,13.1-7.5,18.1-10.7,8.1-5.3,9.4-5.8,14.4-5.8H662v-3.8c0-3.3.5-4.3,3.7-6.5s5-2.7,8.9-2.7h5.2Zm-459.1,3.2c4.5,1.6,15.4,5.9,24.2,9.6,21.2,8.9,37,14.8,54,20.3l14.4,4.8c.2.2,0,4.6-.4,9.9l-.7,9.5H308c-4,0-8.2-1.6-24.2-9.1-20.7-9.8-56.3-25.6-69.3-31-4.4-1.8-8.6-3.9-9.2-4.8s-1.3-3.9-1.3-6.8v-5.3h4.6C211.1,1893.7,216.8,1895,221.3,1896.6Zm205.7,3.8,6.8,5.8V1917l-12.2-.6c-6.7-.4-12.3-.9-12.6-1.1s-.1-5,.3-10.5l.7-10.1h5C419.7,1894.7,420.6,1895.2,427,1900.4Zm180,3.7c0,3.4-.3,9.1-.6,12.5l-.7,6.1h-5.3c-3.2,0-5.4-.5-5.7-1.3s-.6.9-.6,3.5-.3,4.8-.5,4.8l-12,2.9c-10.7,2.7-38.9,6.2-40.1,4.9s-3.5-17-3.5-21.4V1912l6.3-1.2,20.8-4.7c9.3-2.2,16.4-3.4,19.5-3.2s4.9.5,5.5,3.3.7,2,.8-2.2c.1-5.9.2-5.9,10.4-6.2H607Zm-72.1,14.3a68.9,68.9,0,0,1,1.8,11.2l.6,7.4-10.9-.6a127,127,0,0,1-16.5-1.8c-6.4-1.3-6.9-2.2-6.9-12,0-4.6.1-4.8,3.3-5.4,10-1.7,14.9-2.3,20.8-2.4h6.6Zm-66.4,10.2c10.9,5.4,25,10.7,33.1,12.5,2.4.5,3.5,1.6,4.7,4.4s1.5,3.5,1.6,1v-2.7l19.8.6,19.7.5,8.9,8.7c5,4.7,7.1,6.5,4.8,3.9-3.8-4.3-4.2-5.2-4.2-10v-5.3l6.8-1.3c3.7-.7,12-3.1,18.6-5.2s13.7-4,16.1-4c4,0,4.5.3,6.8,4.3,3.6,6,9.7,12.1,14.5,14.3s4.1,2,4.2,7.1-.3,5.4-3.2,7.9c-6.1,5.1-11.3,6.7-23.4,7.2s-15.9-.2-25.2-6.4c-3.6-2.5-5.8-3.6-4.9-2.6s1.7,3.6,1.7,7v5.2h-4.6c-2.6,0-9-1.4-14.3-3.1a228,228,0,0,0-32.2-7.3c-3.9-.6-4.8-1.2-6.7-4.4s-2.2-3.7-2.2-1v2.8l-32,.2-40.7.3h-8.8l-3.5-4.8-3.5-4.7-.3,4.5-.3,4.5h-5.2c-2.9,0-5.8-.4-6.5-.9s-1.6-3.8-1.9-8.4l-.6-7.7h5.2c2.8,0,5.1-.1,5.1-.3s-.9-2.6-2-5.5a35.5,35.5,0,0,1-2-10.7v-5.5l16.3-.3c8.9-.1,18.9-.4,22.2-.5C456,1922.7,457.4,1923.2,468.5,1928.6ZM400,1938.9a153.6,153.6,0,0,1,2.8,16.5l.4,6.3h-6.4a116.9,116.9,0,0,1-15.8-1.6c-5.4-.8-19.3-1.8-31.9-2.1l-22.4-.6.7-9.1c1.1-14.6.3-13.6,11-13.6s14.4-.7,32.1-3.9a144.1,144.1,0,0,1,18.6-2h8.6Z"/><path d="M432.1,1622.2l-4.4,3.6-11.1-.3c-7.5-.1-11.9.2-13.4,1.1l-2.4,1.3,2.1,1.4a5.3,5.3,0,0,1,2.1,4.3v2.9l12,.7c6.6.4,12.3,1.1,12.6,1.6,1.3,2.2,2.3.5,2.9-5.1s1.1-6.1,2.6-6.5,1.9-1.6,1.9-4.6a20.6,20.6,0,0,0-.2-3.9A47.1,47.1,0,0,0,432.1,1622.2Z"/><path d="M272,1660.1c0,.8-3.4,2.4-8.7,4.1-16.1,5.3-26.1,14.3-28.5,25.5l-1.2,5.9-5,1.6a65.7,65.7,0,0,0-8.6,3.6l-3.5,1.8h12.3l1.5,4.2c1,2.8,1.6,3.5,1.6,2.1s.7-2.1,8.9-2.5c10.1-.4,16.7-3.2,25.1-10.5,4.3-3.7,5.5-4.3,9.5-4.3H280v-10h-3.5c-3.2,0-3.5.3-3.5,2.9s-6,9.4-11.6,11.7c-4,1.7-16.8,1.9-21.3.3-2.9-1-3.1-1.4-3.1-6.3s3.1-11.4,10.6-16.8,10.8-6.8,17.2-6.8h6l.7,3.7.8,3.8,1.4-6c.8-3.3,2.1-6.8,3-7.7s1.4-1.8-1.5-1.8S272,1659.2,272,1660.1Z"/><path d="M156.2,1756.7c-2.9,1.2-3,1.8-3.4,11.8-.2,4.5-.2,7.8,0,7.2s2.6-1,5.3-1c4.8,0,5.1-.1,6.6-3.7a44.7,44.7,0,0,0,2.1-9.5l.5-5.8h-4.4A23.5,23.5,0,0,0,156.2,1756.7Z"/><path d="M650.5,1781.8l-7,3.9h4.8a15.7,15.7,0,0,1,7.2,1.6c2.1,1.4,2.5,2.4,2.5,6.8v5.1l7.4-.3c4.2-.2,8.3.1,9.5.8s2.1.8,2.1-3.5v-4.5h-6.6c-8.7,0-11.7-2.1-12.4-9l-.5-4.8Z"/></g></g></svg>